<mxfile host="65bd71144e">
    <diagram id="bvMxqJy8REenpndCrTQX" name="Page-1">
        <mxGraphModel dx="1358" dy="1716" grid="1" gridSize="10" guides="1" tooltips="1" connect="1" arrows="1" fold="1" page="1" pageScale="1" pageWidth="850" pageHeight="1100" background="none" math="0" shadow="1">
            <root>
                <mxCell id="0"/>
                <mxCell id="1" parent="0"/>
                <mxCell id="8" value="Topic&amp;nbsp; 212.3" style="ellipse;whiteSpace=wrap;html=1;align=center;treeFolding=1;treeMoving=1;newEdgeStyle={&quot;edgeStyle&quot;:&quot;entityRelationEdgeStyle&quot;,&quot;startArrow&quot;:&quot;none&quot;,&quot;endArrow&quot;:&quot;none&quot;,&quot;segment&quot;:10,&quot;curved&quot;:1};fillColor=#647687;fontColor=#CCCCCC;strokeColor=#314354;shadow=1;sketch=0;" parent="1" vertex="1">
                    <mxGeometry x="370" y="-510" width="130" height="60" as="geometry"/>
                </mxCell>
                <mxCell id="78" value="&lt;pre style=&quot;box-sizing: border-box ; font-family: , , &amp;quot;sf mono&amp;quot; , &amp;quot;menlo&amp;quot; , &amp;quot;consolas&amp;quot; , &amp;quot;liberation mono&amp;quot; , monospace ; font-size: 13.6px ; margin-top: 0px ; margin-bottom: 0px ; overflow-wrap: normal ; padding: 16px ; overflow: auto ; line-height: 1.45 ; border-radius: 6px ; word-break: normal ; color: rgb(201 , 209 , 217)&quot;&gt;ssh&lt;/pre&gt;" style="whiteSpace=wrap;html=1;rounded=1;arcSize=50;align=center;verticalAlign=middle;strokeWidth=1;autosize=1;spacing=4;treeFolding=1;treeMoving=1;newEdgeStyle={&quot;edgeStyle&quot;:&quot;entityRelationEdgeStyle&quot;,&quot;startArrow&quot;:&quot;none&quot;,&quot;endArrow&quot;:&quot;none&quot;,&quot;segment&quot;:10,&quot;curved&quot;:1};fillColor=#647687;fontColor=#CCCCCC;strokeColor=#314354;shadow=1;sketch=0;" parent="1" vertex="1">
                    <mxGeometry x="200" y="-634" width="97" height="38" as="geometry"/>
                </mxCell>
                <mxCell id="79" value="" style="edgeStyle=entityRelationEdgeStyle;startArrow=none;endArrow=none;segment=10;curved=1;exitX=0;exitY=0;exitDx=0;exitDy=0;fillColor=#647687;strokeColor=#314354;fontColor=#CCCCCC;shadow=1;sketch=0;entryX=1;entryY=0.5;entryDx=0;entryDy=0;" parent="1" source="8" target="78" edge="1">
                    <mxGeometry relative="1" as="geometry">
                        <mxPoint x="490" y="-428" as="sourcePoint"/>
                    </mxGeometry>
                </mxCell>
                <mxCell id="108" value="PermitRootLogin" style="whiteSpace=wrap;html=1;rounded=1;arcSize=50;align=center;verticalAlign=middle;strokeWidth=1;autosize=1;spacing=4;treeFolding=1;treeMoving=1;newEdgeStyle={&quot;edgeStyle&quot;:&quot;entityRelationEdgeStyle&quot;,&quot;startArrow&quot;:&quot;none&quot;,&quot;endArrow&quot;:&quot;none&quot;,&quot;segment&quot;:10,&quot;curved&quot;:1};fillColor=#647687;fontColor=#CCCCCC;strokeColor=#314354;shadow=1;sketch=0;" parent="1" vertex="1">
                    <mxGeometry x="630" y="-460.5" width="134" height="36" as="geometry"/>
                </mxCell>
                <mxCell id="109" value="" style="edgeStyle=entityRelationEdgeStyle;startArrow=none;endArrow=none;segment=10;curved=1;fillColor=#647687;strokeColor=#314354;shadow=1;fontColor=#CCCCCC;sketch=0;entryX=0;entryY=0.5;entryDx=0;entryDy=0;exitX=1;exitY=1;exitDx=0;exitDy=0;" parent="1" source="8" target="108" edge="1">
                    <mxGeometry relative="1" as="geometry">
                        <mxPoint x="310" y="-313" as="sourcePoint"/>
                    </mxGeometry>
                </mxCell>
                <mxCell id="114" value="&lt;pre style=&quot;box-sizing: border-box; font-size: 13.6px; margin-top: 0px; margin-bottom: 0px; overflow-wrap: normal; padding: 16px; overflow: auto; line-height: 1.45; border-radius: 6px; word-break: normal; color: rgb(201, 209, 217);&quot;&gt;sshd&lt;/pre&gt;" style="whiteSpace=wrap;html=1;rounded=1;arcSize=50;align=center;verticalAlign=middle;strokeWidth=1;autosize=1;spacing=4;treeFolding=1;treeMoving=1;newEdgeStyle={&quot;edgeStyle&quot;:&quot;entityRelationEdgeStyle&quot;,&quot;startArrow&quot;:&quot;none&quot;,&quot;endArrow&quot;:&quot;none&quot;,&quot;segment&quot;:10,&quot;curved&quot;:1};fillColor=#647687;fontColor=#CCCCCC;strokeColor=#314354;shadow=1;sketch=0;" parent="1" vertex="1">
                    <mxGeometry x="360" y="-720" width="110" height="39" as="geometry"/>
                </mxCell>
                <mxCell id="115" value="" style="edgeStyle=entityRelationEdgeStyle;startArrow=none;endArrow=none;segment=10;curved=1;exitX=0.5;exitY=0;exitDx=0;exitDy=0;fillColor=#647687;strokeColor=#314354;shadow=1;fontColor=#CCCCCC;sketch=0;entryX=0.5;entryY=1;entryDx=0;entryDy=0;" parent="1" source="8" target="114" edge="1">
                    <mxGeometry relative="1" as="geometry">
                        <mxPoint x="218" y="-583" as="sourcePoint"/>
                    </mxGeometry>
                </mxCell>
                <mxCell id="116" value="/etc/ssh/sshd_config" style="whiteSpace=wrap;html=1;rounded=1;arcSize=50;align=center;verticalAlign=middle;strokeWidth=1;autosize=1;spacing=4;treeFolding=1;treeMoving=1;newEdgeStyle={&quot;edgeStyle&quot;:&quot;entityRelationEdgeStyle&quot;,&quot;startArrow&quot;:&quot;none&quot;,&quot;endArrow&quot;:&quot;none&quot;,&quot;segment&quot;:10,&quot;curved&quot;:1};fillColor=#647687;fontColor=#CCCCCC;strokeColor=#314354;shadow=1;sketch=0;" parent="1" vertex="1">
                    <mxGeometry x="110" y="-499.5" width="160" height="39" as="geometry"/>
                </mxCell>
                <mxCell id="117" value="" style="edgeStyle=entityRelationEdgeStyle;startArrow=none;endArrow=none;segment=10;curved=1;exitX=0;exitY=0.5;exitDx=0;exitDy=0;fillColor=#647687;strokeColor=#314354;shadow=1;fontColor=#CCCCCC;sketch=0;entryX=1;entryY=0.5;entryDx=0;entryDy=0;" parent="1" source="8" target="116" edge="1">
                    <mxGeometry relative="1" as="geometry">
                        <mxPoint x="530.9619407771256" y="-482.9967965644036" as="sourcePoint"/>
                    </mxGeometry>
                </mxCell>
                <mxCell id="118" value="private key" style="whiteSpace=wrap;html=1;rounded=1;arcSize=50;align=center;verticalAlign=middle;strokeWidth=1;autosize=1;spacing=4;treeFolding=1;treeMoving=1;newEdgeStyle={&quot;edgeStyle&quot;:&quot;entityRelationEdgeStyle&quot;,&quot;startArrow&quot;:&quot;none&quot;,&quot;endArrow&quot;:&quot;none&quot;,&quot;segment&quot;:10,&quot;curved&quot;:1};fillColor=#647687;fontColor=#CCCCCC;strokeColor=#314354;shadow=1;sketch=0;" parent="1" vertex="1">
                    <mxGeometry x="557" y="-691" width="98" height="38" as="geometry"/>
                </mxCell>
                <mxCell id="119" value="" style="edgeStyle=entityRelationEdgeStyle;startArrow=none;endArrow=none;segment=10;curved=1;exitX=1;exitY=0;exitDx=0;exitDy=0;fillColor=#647687;strokeColor=#314354;shadow=1;fontColor=#CCCCCC;sketch=0;entryX=0;entryY=0.5;entryDx=0;entryDy=0;" parent="1" source="8" target="118" edge="1">
                    <mxGeometry relative="1" as="geometry">
                        <mxPoint x="640.0019407771256" y="-492.9967965644036" as="sourcePoint"/>
                    </mxGeometry>
                </mxCell>
                <mxCell id="120" value="public key" style="whiteSpace=wrap;html=1;rounded=1;arcSize=50;align=center;verticalAlign=middle;strokeWidth=1;autosize=1;spacing=4;treeFolding=1;treeMoving=1;newEdgeStyle={&quot;edgeStyle&quot;:&quot;entityRelationEdgeStyle&quot;,&quot;startArrow&quot;:&quot;none&quot;,&quot;endArrow&quot;:&quot;none&quot;,&quot;segment&quot;:10,&quot;curved&quot;:1};fillColor=#647687;fontColor=#CCCCCC;strokeColor=#314354;shadow=1;sketch=0;" parent="1" vertex="1">
                    <mxGeometry x="600" y="-587" width="102" height="37" as="geometry"/>
                </mxCell>
                <mxCell id="121" value="" style="edgeStyle=entityRelationEdgeStyle;startArrow=none;endArrow=none;segment=10;curved=1;exitX=1;exitY=0.5;exitDx=0;exitDy=0;fillColor=#647687;strokeColor=#314354;shadow=1;fontColor=#CCCCCC;sketch=0;entryX=0;entryY=0.5;entryDx=0;entryDy=0;" parent="1" source="8" target="120" edge="1">
                    <mxGeometry relative="1" as="geometry">
                        <mxPoint x="470" y="-452" as="sourcePoint"/>
                        <mxPoint x="654.04" y="-411.5" as="targetPoint"/>
                    </mxGeometry>
                </mxCell>
                <mxCell id="122" value="PubKeyAuthentication" style="whiteSpace=wrap;html=1;rounded=1;arcSize=50;align=center;verticalAlign=middle;strokeWidth=1;autosize=1;spacing=4;treeFolding=1;treeMoving=1;newEdgeStyle={&quot;edgeStyle&quot;:&quot;entityRelationEdgeStyle&quot;,&quot;startArrow&quot;:&quot;none&quot;,&quot;endArrow&quot;:&quot;none&quot;,&quot;segment&quot;:10,&quot;curved&quot;:1};fillColor=#647687;fontColor=#CCCCCC;strokeColor=#314354;shadow=1;sketch=0;" parent="1" vertex="1">
                    <mxGeometry x="540" y="-351" width="153" height="36" as="geometry"/>
                </mxCell>
                <mxCell id="123" value="" style="edgeStyle=entityRelationEdgeStyle;startArrow=none;endArrow=none;segment=10;curved=1;fillColor=#647687;strokeColor=#314354;shadow=1;fontColor=#CCCCCC;sketch=0;exitX=0.5;exitY=1;exitDx=0;exitDy=0;" parent="1" source="8" target="122" edge="1">
                    <mxGeometry relative="1" as="geometry">
                        <mxPoint x="410" y="-420" as="sourcePoint"/>
                    </mxGeometry>
                </mxCell>
                <mxCell id="124" value="AllowUsers" style="whiteSpace=wrap;html=1;rounded=1;arcSize=50;align=center;verticalAlign=middle;strokeWidth=1;autosize=1;spacing=4;treeFolding=1;treeMoving=1;newEdgeStyle={&quot;edgeStyle&quot;:&quot;entityRelationEdgeStyle&quot;,&quot;startArrow&quot;:&quot;none&quot;,&quot;endArrow&quot;:&quot;none&quot;,&quot;segment&quot;:10,&quot;curved&quot;:1};fillColor=#647687;fontColor=#CCCCCC;strokeColor=#314354;shadow=1;sketch=0;" parent="1" vertex="1">
                    <mxGeometry x="183" y="-351" width="114" height="37" as="geometry"/>
                </mxCell>
                <mxCell id="125" value="" style="edgeStyle=entityRelationEdgeStyle;startArrow=none;endArrow=none;segment=10;curved=1;fillColor=#647687;strokeColor=#314354;shadow=1;fontColor=#CCCCCC;sketch=0;entryX=1;entryY=0.5;entryDx=0;entryDy=0;exitX=0;exitY=1;exitDx=0;exitDy=0;" parent="1" source="8" target="124" edge="1">
                    <mxGeometry relative="1" as="geometry">
                        <mxPoint x="400" y="-420" as="sourcePoint"/>
                        <mxPoint x="460" y="-240" as="targetPoint"/>
                    </mxGeometry>
                </mxCell>
                <mxCell id="126" value="PasswordAuthentication" style="whiteSpace=wrap;html=1;rounded=1;arcSize=50;align=center;verticalAlign=middle;strokeWidth=1;autosize=1;spacing=4;treeFolding=1;treeMoving=1;newEdgeStyle={&quot;edgeStyle&quot;:&quot;entityRelationEdgeStyle&quot;,&quot;startArrow&quot;:&quot;none&quot;,&quot;endArrow&quot;:&quot;none&quot;,&quot;segment&quot;:10,&quot;curved&quot;:1};fillColor=#647687;fontColor=#CCCCCC;strokeColor=#314354;shadow=1;sketch=0;" parent="1" vertex="1">
                    <mxGeometry x="370" y="-250" width="155" height="38" as="geometry"/>
                </mxCell>
                <mxCell id="127" value="" style="edgeStyle=entityRelationEdgeStyle;startArrow=none;endArrow=none;segment=10;curved=1;exitX=0.5;exitY=1;exitDx=0;exitDy=0;fillColor=#647687;strokeColor=#314354;shadow=1;fontColor=#CCCCCC;sketch=0;entryX=0.5;entryY=0;entryDx=0;entryDy=0;" parent="1" source="8" target="126" edge="1">
                    <mxGeometry relative="1" as="geometry">
                        <mxPoint x="450.9619407771256" y="-304.9967965644036" as="sourcePoint"/>
                    </mxGeometry>
                </mxCell>
            </root>
        </mxGraphModel>
    </diagram>
</mxfile>